<svg width="32" height="32" viewBox="0 0 32 32" fill="none" xmlns="http://www.w3.org/2000/svg">
<g clip-path="url(#clip0_5_297)">
<path fill-rule="evenodd" clip-rule="evenodd" d="M20.7696 8.9876H28.9104V6.65635H20.7696V8.9876ZM24.7824 13.6696C22.9664 13.6696 21.5872 14.7947 21.4544 16.8735H27.9696C27.528 14.4064 26.432 13.6696 24.7824 13.6696ZM25.0368 23.3118C26.7136 23.3118 27.944 22.2526 28.1952 21.3603H31.7216C30.7136 24.5876 28.632 26.4001 24.8944 26.4001C20.1248 26.4001 17.448 23.0078 17.448 18.5063C17.448 7.90556 32.744 7.5255 31.976 19.4962H21.4544C21.5568 21.927 22.56 23.3118 25.0368 23.3118ZM9.168 22.8454C11.0928 22.8454 12.44 22.105 12.44 20.1071C12.44 18.0349 11.2496 17.136 9.2512 17.136H4.4288V22.8454H9.168ZM8.9136 14.0196C10.5152 14.0196 11.6208 13.2741 11.6208 11.5423C11.6208 9.71793 10.3344 9.15478 8.576 9.15478H4.4288V14.0196H8.9136ZM9.4784 5.6001C13.272 5.6001 15.9088 6.85401 15.9088 10.7556C15.9088 12.6873 15.1328 14.127 13.1728 15.097C15.6816 15.8423 16.8688 17.7991 16.8688 20.3704C16.8688 24.4521 13.632 26.4001 9.76 26.4001H0V5.6001H9.4784Z" fill="white"/>
</g>
<defs>
<clipPath id="clip0_5_297">
<rect width="32" height="32" fill="white"/>
</clipPath>
</defs>
</svg>
