<svg width="32" height="32" viewBox="0 0 32 32" fill="none" xmlns="http://www.w3.org/2000/svg">
<g clip-path="url(#clip0_5_294)">
<path d="M16.0001 0.761719C7.58412 0.761719 0.762024 7.58381 0.762024 15.9998C0.762024 24.4158 7.58412 31.2379 16.0001 31.2379C24.4161 31.2379 31.2382 24.4158 31.2382 15.9998C31.2382 7.58381 24.4161 0.761719 16.0001 0.761719ZM16.0001 2.96972C19.3197 2.96972 22.3498 4.21162 24.6508 6.25505C22.9601 8.48515 20.3918 9.9701 17.818 10.9751C16.4154 8.40896 14.6881 5.70343 12.9304 3.33315C13.914 3.09543 14.9418 2.96972 16.0001 2.96972ZM10.4565 4.20476C12.1548 6.74572 13.8005 9.10229 15.3045 11.7697C11.5018 12.7549 7.20623 13.3461 3.23747 13.356C4.07404 9.29658 6.80088 5.92591 10.4565 4.20476ZM26.0961 7.7621C27.914 9.9861 29.0089 12.8227 29.0302 15.9137C26.0161 15.3202 23.018 15.164 19.9666 15.4718C19.623 14.6162 19.2077 13.804 18.8093 12.9271C21.4401 11.8657 24.2531 10.0493 26.0961 7.7621ZM16.3628 13.7857C16.6889 14.4798 17.0668 15.2151 17.4211 15.9671C13.1773 17.8383 8.66375 20.3389 6.32013 24.7229C4.23784 22.4135 2.97003 19.3537 2.97003 15.9998C2.97003 15.8726 2.97231 15.7453 2.97612 15.6189C7.52089 15.5968 11.9818 15.0284 16.3628 13.7857ZM28.986 17.0848C28.9822 17.1351 28.9776 17.1861 28.9723 17.2364C28.9776 17.1861 28.9822 17.1358 28.986 17.0848ZM23.2481 17.3385C25.1422 17.3324 27.0996 17.5968 28.8679 18.0623C28.2896 21.7011 26.2036 24.8394 23.2702 26.8143C22.5708 23.6333 21.9041 20.5895 20.7255 17.5206C21.5384 17.3994 22.3872 17.3408 23.2481 17.3385ZM28.9358 17.5747C28.9266 17.6493 28.9182 17.7225 28.9076 17.7964C28.9182 17.7217 28.9274 17.6486 28.9358 17.5747ZM18.314 18.1164C19.5156 21.2189 20.458 24.6551 21.0904 27.9991C19.5262 28.6634 17.8066 29.0307 16.0001 29.0307C12.9868 29.0307 10.2119 28.0067 8.0047 26.2886C10.3643 22.46 14.0192 19.5632 18.314 18.1164Z" fill="white"/>
</g>
<defs>
<clipPath id="clip0_5_294">
<rect width="32" height="32" fill="white"/>
</clipPath>
</defs>
</svg>
