<svg width="29" height="44" viewBox="0 0 29 44" fill="none" xmlns="http://www.w3.org/2000/svg">
<path d="M0 36.6666C0 32.6165 3.24597 29.3333 7.25 29.3333H14.5V36.6666C14.5 40.7166 11.254 43.9999 7.25 43.9999C3.24597 43.9999 0 40.7166 0 36.6666Z" fill="#24CB71"/>
<path d="M14.5 0V14.6667H21.75C25.754 14.6667 29 11.3834 29 7.33333C29 3.28328 25.754 0 21.75 0H14.5Z" fill="#FF7237"/>
<path d="M21.6896 29.3334C25.6937 29.3334 28.9396 26.0502 28.9396 22.0001C28.9396 17.95 25.6937 14.6667 21.6896 14.6667C17.6855 14.6667 14.4396 17.95 14.4396 22.0001C14.4396 26.0502 17.6855 29.3334 21.6896 29.3334Z" fill="#00B6FF"/>
<path d="M0 7.33333C0 11.3834 3.24597 14.6667 7.25 14.6667H14.5V0H7.25C3.24597 0 0 3.28328 0 7.33333Z" fill="#FF3737"/>
<path d="M0 22.0001C0 26.0501 3.24597 29.3334 7.25 29.3334H14.5V14.6667H7.25C3.24597 14.6667 0 17.95 0 22.0001Z" fill="#874FFF"/>
</svg>
