<svg width="32" height="32" viewBox="0 0 32 32" fill="none" xmlns="http://www.w3.org/2000/svg">
<path d="M29.2787 18.2918V28.1305H23.5747V18.9505C23.5747 16.6438 22.7494 15.0705 20.6854 15.0705C19.1094 15.0705 18.1707 16.1318 17.7587 17.1572C17.608 17.5238 17.5694 18.0345 17.5694 18.5478V28.1305H11.8627C11.8627 28.1305 11.94 12.5838 11.8627 10.9718H17.5694V13.4038L17.532 13.4598H17.5694V13.4038C18.3267 12.2372 19.68 10.5692 22.7107 10.5692C26.464 10.5692 29.2787 13.0225 29.2787 18.2918V18.2918ZM5.89469 2.70117C3.94402 2.70117 2.66669 3.98117 2.66669 5.66517C2.66669 7.31184 3.90669 8.6305 5.82002 8.6305H5.85735C7.84802 8.6305 9.08402 7.31184 9.08402 5.66517C9.04935 3.98117 7.84935 2.70117 5.89602 2.70117H5.89469ZM3.00535 28.1305H8.70935V10.9718H3.00535V28.1305Z" fill="white"/>
</svg>
